<svg viewBox="0 0 14 12" fill="currentColor" xmlns="http://www.w3.org/2000/svg">
<path fill-rule="evenodd" clip-rule="evenodd" d="M0.5 6C0.5 5.78452 0.585603 5.57785 0.737976 5.42548C0.890349 5.27311 1.09701 5.1875 1.3125 5.1875H10.7261L7.23725 1.70025C7.08468 1.54769 6.99897 1.34076 6.99897 1.125C6.99897 0.909244 7.08468 0.70232 7.23725 0.549754C7.38982 0.397188 7.59674 0.311478 7.8125 0.311478C8.02826 0.311478 8.23518 0.397188 8.38775 0.549754L13.2628 5.42475C13.3384 5.50023 13.3984 5.58989 13.4394 5.6886C13.4804 5.78731 13.5015 5.89313 13.5015 6C13.5015 6.10688 13.4804 6.2127 13.4394 6.31141C13.3984 6.41012 13.3384 6.49978 13.2628 6.57525L8.38775 11.4503C8.23518 11.6028 8.02826 11.6885 7.8125 11.6885C7.59674 11.6885 7.38982 11.6028 7.23725 11.4503C7.08468 11.2977 6.99897 11.0908 6.99897 10.875C6.99897 10.6592 7.08468 10.4523 7.23725 10.2998L10.7261 6.8125H1.3125C1.09701 6.8125 0.890349 6.7269 0.737976 6.57453C0.585603 6.42216 0.5 6.21549 0.5 6Z"/>
</svg>
