<svg viewBox="0 0 176 41" fill="currentColor" xmlns="http://www.w3.org/2000/svg">
<g clip-path="url(#clip0_5_29)">
<path d="M2.46264 1.76874L25.1107 0.0932083C27.8926 -0.145958 28.6075 0.0153083 30.3566 1.28904L37.5862 6.39081C38.7787 7.26821 39.1757 7.50737 39.1757 8.46268V36.4424C39.1757 38.1959 38.5399 39.2332 36.3147 39.3917L10.0143 40.9866C8.34431 41.0659 7.5489 40.8267 6.67436 39.7101L1.3507 32.7757C0.395659 31.4992 0 30.5439 0 29.4273V4.55674C0 3.12311 0.635783 1.92728 2.46264 1.76874Z" fill="white"/>
<path fill-rule="evenodd" clip-rule="evenodd" d="M25.1107 0.0932083L2.46264 1.76874C0.635783 1.92728 0 3.12311 0 4.55674V29.4273C0 30.5439 0.395659 31.4992 1.3507 32.7757L6.67436 39.7101C7.5489 40.8267 8.34431 41.0659 10.0143 40.9866L36.3147 39.3917C38.5385 39.2332 39.1757 38.1959 39.1757 36.4424V8.46268C39.1757 7.55657 38.8182 7.29554 37.7663 6.52201C37.7058 6.47833 37.6453 6.4346 37.5849 6.39081L30.3566 1.28904C28.6075 0.0153083 27.8926 -0.145958 25.1107 0.0932083ZM10.6091 8.00484C8.46164 8.14971 7.97457 8.18251 6.75485 7.18894L3.65371 4.71801C3.33854 4.39821 3.49681 3.99914 4.29085 3.91988L26.063 2.32634C27.8912 2.16644 28.8435 2.80468 29.5584 3.36228L33.2926 6.07237C33.4523 6.15301 33.8493 6.62997 33.3718 6.62997L10.8874 7.98571L10.6091 8.00484ZM8.10555 36.2033V12.4506C8.10555 11.4133 8.42344 10.935 9.37575 10.8543L35.2 9.34008C36.0759 9.26081 36.4716 9.81841 36.4716 10.8543V34.4485C36.4716 35.4858 36.3119 36.3632 34.8821 36.4424L10.1698 37.8774C8.73997 37.9567 8.10555 37.4797 8.10555 36.2033ZM32.5 13.7243C32.6582 14.4418 32.5 15.1593 31.7837 15.2413L30.5926 15.4778V33.0148C29.5584 33.5724 28.6061 33.8909 27.8107 33.8909C26.5392 33.8909 26.2213 33.4918 25.269 32.2973L17.4799 20.0219V31.8983L19.9439 32.4572C19.9439 32.4572 19.9439 33.8922 17.9561 33.8922L12.4755 34.2107C12.3159 33.8909 12.4755 33.0941 13.0308 32.9356L14.462 32.5379V16.8349L12.4755 16.6736C12.3159 15.9561 12.7129 14.9202 13.8262 14.8395L19.7065 14.4432L27.8107 26.8771V15.8768L25.7451 15.639C25.5855 14.7603 26.2213 14.122 27.0153 14.0441L32.5 13.7243Z" />
<path d="M61.8091 11.9273V27.2H59.3482L52.1518 16.797H52.025V27.2H49.2583V11.9273H51.7342L58.9231 22.3378H59.0574V11.9273H61.8091ZM69.7755 27.4237C68.627 27.4237 67.6352 27.1851 66.8 26.7078C65.9697 26.2256 65.3309 25.5445 64.8834 24.6645C64.436 23.7796 64.2123 22.738 64.2123 21.5399C64.2123 20.3616 64.436 19.3275 64.8834 18.4376C65.3358 17.5427 65.9672 16.8467 66.7776 16.3495C67.588 15.8474 68.54 15.5963 69.6338 15.5963C70.3398 15.5963 71.0059 15.7107 71.6324 15.9394C72.2638 16.1631 72.8206 16.5111 73.3028 16.9834C73.79 17.4557 74.1729 18.0573 74.4513 18.7881C74.7297 19.5139 74.8689 20.379 74.8689 21.3833V22.211H65.48V20.3914H72.2812C72.2762 19.8744 72.1643 19.4145 71.9456 19.0118C71.7268 18.6041 71.4211 18.2835 71.0283 18.0498C70.6405 17.8161 70.1881 17.6993 69.6711 17.6993C69.1192 17.6993 68.6345 17.8335 68.2169 18.102C67.7993 18.3655 67.4736 18.7135 67.24 19.146C67.0113 19.5736 66.8944 20.0434 66.8895 20.5555V22.1439C66.8895 22.8101 67.0113 23.3818 67.2549 23.8591C67.4985 24.3314 67.839 24.6943 68.2765 24.9479C68.714 25.1965 69.2261 25.3208 69.8128 25.3208C70.2055 25.3208 70.561 25.2661 70.8792 25.1567C71.1974 25.0423 71.4733 24.8758 71.7069 24.657C71.9406 24.4383 72.1171 24.1673 72.2364 23.8442L74.757 24.1276C74.5979 24.7938 74.2947 25.3754 73.8472 25.8726C73.4047 26.3648 72.838 26.7476 72.1469 27.021C71.4559 27.2895 70.6654 27.4237 69.7755 27.4237ZM81.4034 27.4014C80.5036 27.4014 79.6982 27.1702 78.9872 26.7078C78.2763 26.2455 77.7145 25.5743 77.3018 24.6943C76.8892 23.8144 76.6829 22.7455 76.6829 21.4877C76.6829 20.2149 76.8917 19.1411 77.3093 18.2661C77.7319 17.3861 78.3011 16.7224 79.017 16.2749C79.733 15.8225 80.5309 15.5963 81.4109 15.5963C82.082 15.5963 82.6339 15.7107 83.0664 15.9394C83.4989 16.1631 83.842 16.434 84.0955 16.7522C84.3491 17.0654 84.5455 17.3612 84.6847 17.6396H84.7965V11.9273H87.5036V27.2H84.8487V25.3953H84.6847C84.5455 25.6737 84.3441 25.9695 84.0806 26.2828C83.8171 26.591 83.4691 26.8545 83.0366 27.0732C82.604 27.292 82.0597 27.4014 81.4034 27.4014ZM82.1566 25.1865C82.7283 25.1865 83.2156 25.0324 83.6183 24.7242C84.021 24.4109 84.3267 23.9759 84.5355 23.4191C84.7443 22.8623 84.8487 22.2135 84.8487 21.4727C84.8487 20.732 84.7443 20.0882 84.5355 19.5413C84.3317 18.9944 84.0284 18.5693 83.6257 18.2661C83.228 17.9628 82.7383 17.8112 82.1566 17.8112C81.555 17.8112 81.0529 17.9678 80.6502 18.281C80.2475 18.5942 79.9442 19.0267 79.7404 19.5786C79.5366 20.1304 79.4347 20.7618 79.4347 21.4727C79.4347 22.1886 79.5366 22.8275 79.7404 23.3893C79.9492 23.9461 80.255 24.3861 80.6577 24.7092C81.0653 25.0274 81.565 25.1865 82.1566 25.1865ZM95.3767 27.4237C94.2581 27.4237 93.2886 27.1776 92.4683 26.6855C91.648 26.1933 91.0116 25.5047 90.5592 24.6198C90.1118 23.7348 89.8881 22.7007 89.8881 21.5175C89.8881 20.3342 90.1118 19.2977 90.5592 18.4078C91.0116 17.5178 91.648 16.8268 92.4683 16.3346C93.2886 15.8424 94.2581 15.5963 95.3767 15.5963C96.4953 15.5963 97.4648 15.8424 98.2851 16.3346C99.1054 16.8268 99.7393 17.5178 100.187 18.4078C100.639 19.2977 100.865 20.3342 100.865 21.5175C100.865 22.7007 100.639 23.7348 100.187 24.6198C99.7393 25.5047 99.1054 26.1933 98.2851 26.6855C97.4648 27.1776 96.4953 27.4237 95.3767 27.4237ZM95.3916 25.2611C95.9981 25.2611 96.5052 25.0945 96.9129 24.7614C97.3206 24.4234 97.6238 23.971 97.8227 23.4042C98.0265 22.8374 98.1285 22.206 98.1285 21.51C98.1285 20.809 98.0265 20.1752 97.8227 19.6084C97.6238 19.0367 97.3206 18.5818 96.9129 18.2437C96.5052 17.9056 95.9981 17.7366 95.3916 17.7366C94.7702 17.7366 94.2531 17.9056 93.8405 18.2437C93.4328 18.5818 93.127 19.0367 92.9232 19.6084C92.7243 20.1752 92.6249 20.809 92.6249 21.51C92.6249 22.206 92.7243 22.8374 92.9232 23.4042C93.127 23.971 93.4328 24.4234 93.8405 24.7614C94.2531 25.0945 94.7702 25.2611 95.3916 25.2611ZM105.856 20.4884V27.2H103.157V15.7455H105.737V17.6918H105.871C106.135 17.0505 106.555 16.5409 107.131 16.1631C107.713 15.7852 108.431 15.5963 109.287 15.5963C110.077 15.5963 110.766 15.7654 111.352 16.1034C111.944 16.4415 112.401 16.9312 112.724 17.5725C113.053 18.2139 113.214 18.9919 113.209 19.9067V27.2H110.51V20.3243C110.51 19.5587 110.311 18.9596 109.913 18.5271C109.52 18.0945 108.976 17.8783 108.28 17.8783C107.808 17.8783 107.387 17.9827 107.02 18.1915C106.657 18.3953 106.371 18.6911 106.162 19.0789C105.958 19.4667 105.856 19.9365 105.856 20.4884ZM120.95 27.4237C119.831 27.4237 118.862 27.1776 118.042 26.6855C117.221 26.1933 116.585 25.5047 116.132 24.6198C115.685 23.7348 115.461 22.7007 115.461 21.5175C115.461 20.3342 115.685 19.2977 116.132 18.4078C116.585 17.5178 117.221 16.8268 118.042 16.3346C118.862 15.8424 119.831 15.5963 120.95 15.5963C122.069 15.5963 123.038 15.8424 123.858 16.3346C124.679 16.8268 125.313 17.5178 125.76 18.4078C126.212 19.2977 126.439 20.3342 126.439 21.5175C126.439 22.7007 126.212 23.7348 125.76 24.6198C125.313 25.5047 124.679 26.1933 123.858 26.6855C123.038 27.1776 122.069 27.4237 120.95 27.4237ZM120.965 25.2611C121.571 25.2611 122.078 25.0945 122.486 24.7614C122.894 24.4234 123.197 23.971 123.396 23.4042C123.6 22.8374 123.702 22.206 123.702 21.51C123.702 20.809 123.6 20.1752 123.396 19.6084C123.197 19.0367 122.894 18.5818 122.486 18.2437C122.078 17.9056 121.571 17.7366 120.965 17.7366C120.343 17.7366 119.826 17.9056 119.414 18.2437C119.006 18.5818 118.7 19.0367 118.496 19.6084C118.298 20.1752 118.198 20.809 118.198 21.51C118.198 22.206 118.298 22.8374 118.496 23.4042C118.7 23.971 119.006 24.4234 119.414 24.7614C119.826 25.0945 120.343 25.2611 120.965 25.2611ZM134.45 15.7455V17.8335H127.865V15.7455H134.45ZM129.491 13.0011H132.19V23.7547C132.19 24.1176 132.245 24.396 132.354 24.5899C132.468 24.7788 132.618 24.9081 132.802 24.9777C132.986 25.0473 133.189 25.0821 133.413 25.0821C133.582 25.0821 133.736 25.0697 133.875 25.0448C134.02 25.02 134.129 24.9976 134.204 24.9777L134.658 27.0882C134.514 27.1379 134.308 27.1926 134.04 27.2522C133.776 27.3119 133.453 27.3467 133.07 27.3566C132.394 27.3765 131.785 27.2746 131.243 27.0509C130.701 26.8222 130.271 26.4692 129.953 25.9919C129.64 25.5146 129.486 24.9181 129.491 24.2021V13.0011ZM136.707 27.2V15.7455H139.407V27.2H136.707ZM138.065 14.1198C137.637 14.1198 137.269 13.9781 136.961 13.6947C136.653 13.4063 136.499 13.0608 136.499 12.6581C136.499 12.2504 136.653 11.9049 136.961 11.6215C137.269 11.3332 137.637 11.189 138.065 11.189C138.497 11.189 138.865 11.3332 139.168 11.6215C139.477 11.9049 139.631 12.2504 139.631 12.6581C139.631 13.0608 139.477 13.4063 139.168 13.6947C138.865 13.9781 138.497 14.1198 138.065 14.1198ZM147.179 27.4237C146.061 27.4237 145.091 27.1776 144.271 26.6855C143.451 26.1933 142.814 25.5047 142.362 24.6198C141.915 23.7348 141.691 22.7007 141.691 21.5175C141.691 20.3342 141.915 19.2977 142.362 18.4078C142.814 17.5178 143.451 16.8268 144.271 16.3346C145.091 15.8424 146.061 15.5963 147.179 15.5963C148.298 15.5963 149.267 15.8424 150.088 16.3346C150.908 16.8268 151.542 17.5178 151.989 18.4078C152.442 19.2977 152.668 20.3342 152.668 21.5175C152.668 22.7007 152.442 23.7348 151.989 24.6198C151.542 25.5047 150.908 26.1933 150.088 26.6855C149.267 27.1776 148.298 27.4237 147.179 27.4237ZM147.194 25.2611C147.801 25.2611 148.308 25.0945 148.716 24.7614C149.123 24.4234 149.427 23.971 149.625 23.4042C149.829 22.8374 149.931 22.206 149.931 21.51C149.931 20.809 149.829 20.1752 149.625 19.6084C149.427 19.0367 149.123 18.5818 148.716 18.2437C148.308 17.9056 147.801 17.7366 147.194 17.7366C146.573 17.7366 146.056 17.9056 145.643 18.2437C145.236 18.5818 144.93 19.0367 144.726 19.6084C144.527 20.1752 144.428 20.809 144.428 21.51C144.428 22.206 144.527 22.8374 144.726 23.4042C144.93 23.971 145.236 24.4234 145.643 24.7614C146.056 25.0945 146.573 25.2611 147.194 25.2611ZM157.659 20.4884V27.2H154.959V15.7455H157.54V17.6918H157.674C157.937 17.0505 158.357 16.5409 158.934 16.1631C159.516 15.7852 160.234 15.5963 161.089 15.5963C161.88 15.5963 162.568 15.7654 163.155 16.1034C163.747 16.4415 164.204 16.9312 164.527 17.5725C164.855 18.2139 165.017 18.9919 165.012 19.9067V27.2H162.312V20.3243C162.312 19.5587 162.113 18.9596 161.716 18.5271C161.323 18.0945 160.779 17.8783 160.083 17.8783C159.61 17.8783 159.19 17.9827 158.822 18.1915C158.459 18.3953 158.173 18.6911 157.965 19.0789C157.761 19.4667 157.659 19.9365 157.659 20.4884Z"/>
</g>
<defs>
<clipPath id="clip0_5_29">
<rect width="176" height="41" fill="white"/>
</clipPath>
</defs>
</svg>
