<svg viewBox="0 0 39 41" fill="currentColor" xmlns="http://www.w3.org/2000/svg">
<g clip-path="url(#clip0_5_51)">
<path d="M2.46264 1.76874L25.1107 0.0932083C27.8926 -0.145958 28.6075 0.0153083 30.3566 1.28904L37.5862 6.39081C38.7787 7.26821 39.1757 7.50737 39.1757 8.46268V36.4424C39.1757 38.1959 38.5399 39.2332 36.3147 39.3917L10.0143 40.9866C8.34431 41.0659 7.5489 40.8267 6.67436 39.7101L1.3507 32.7757C0.395659 31.4992 0 30.5439 0 29.4273V4.55674C0 3.12311 0.635783 1.92728 2.46264 1.76874Z" fill="white"/>
<path fill-rule="evenodd" clip-rule="evenodd" d="M25.1107 0.0932083L2.46264 1.76874C0.635783 1.92728 0 3.12311 0 4.55674V29.4273C0 30.5439 0.395659 31.4992 1.3507 32.7757L6.67436 39.7101C7.5489 40.8267 8.34431 41.0659 10.0143 40.9866L36.3147 39.3917C38.5385 39.2332 39.1757 38.1959 39.1757 36.4424V8.46268C39.1757 7.55657 38.8182 7.29554 37.7663 6.52201C37.7058 6.47833 37.6453 6.4346 37.5849 6.39081L30.3566 1.28904C28.6075 0.0153083 27.8926 -0.145958 25.1107 0.0932083ZM10.6091 8.00484C8.46164 8.14971 7.97457 8.18251 6.75485 7.18894L3.65371 4.71801C3.33854 4.39821 3.49681 3.99914 4.29085 3.91988L26.063 2.32634C27.8912 2.16644 28.8435 2.80468 29.5584 3.36228L33.2926 6.07237C33.4523 6.15301 33.8493 6.62997 33.3718 6.62997L10.8874 7.98571L10.6091 8.00484ZM8.10555 36.2033V12.4506C8.10555 11.4133 8.42344 10.935 9.37575 10.8543L35.2 9.34008C36.0759 9.26081 36.4716 9.81841 36.4716 10.8543V34.4485C36.4716 35.4858 36.3119 36.3632 34.8821 36.4424L10.1698 37.8774C8.73997 37.9567 8.10555 37.4797 8.10555 36.2033ZM32.5 13.7243C32.6582 14.4418 32.5 15.1593 31.7837 15.2413L30.5926 15.4778V33.0148C29.5584 33.5724 28.6061 33.8909 27.8107 33.8909C26.5392 33.8909 26.2213 33.4918 25.269 32.2973L17.4799 20.0219V31.8983L19.9439 32.4572C19.9439 32.4572 19.9439 33.8922 17.9561 33.8922L12.4755 34.2107C12.3159 33.8909 12.4755 33.0941 13.0308 32.9356L14.462 32.5379V16.8349L12.4755 16.6736C12.3159 15.9561 12.7129 14.9202 13.8262 14.8395L19.7065 14.4432L27.8107 26.8771V15.8768L25.7451 15.639C25.5855 14.7603 26.2213 14.122 27.0153 14.0441L32.5 13.7243Z" fill="currentColor"/>
</g>
<defs>
<clipPath id="clip0_5_51">
<rect width="39" height="41" fill="white"/>
</clipPath>
</defs>
</svg>
